<?xml version="1.0" standalone="no"?>
<!DOCTYPE svg PUBLIC "-//W3C//DTD SVG 20010904//EN"
 "http://www.w3.org/TR/2001/REC-SVG-20010904/DTD/svg10.dtd">
<svg version="1.0" xmlns="http://www.w3.org/2000/svg"
 width="1000.000000pt" height="216.000000pt" viewBox="0 0 1000.000000 216.000000"
 preserveAspectRatio="xMidYMid meet">

<g transform="translate(0.000000,216.000000) scale(0.100000,-0.100000)"
fill="#ffffff" stroke="none">
<path d="M5023 1738 c-137 -14 -261 -71 -365 -167 -62 -57 -129 -147 -154
-206 l-14 -33 93 -58 c146 -92 456 -245 656 -323 193 -76 421 -147 445 -138
27 11 58 127 63 238 10 202 -49 360 -186 498 -145 146 -328 210 -538 189z"/>
<path d="M4145 1611 c-132 -33 -126 -123 19 -266 293 -291 1099 -672 1605
-759 52 -9 138 -16 190 -16 108 0 155 16 180 61 13 24 13 31 -4 69 -23 51
-103 126 -222 208 -50 34 -93 62 -96 62 -3 0 -10 -21 -17 -47 l-12 -48 44 -35
c24 -19 68 -59 98 -87 l55 -53 -51 0 c-384 -1 -1348 420 -1674 732 l-45 43 40
3 c37 3 182 -13 209 -24 7 -3 18 6 24 18 6 13 19 33 28 45 16 22 15 23 -12 34
-107 41 -303 74 -359 60z"/>
<path d="M33 1266 c-26 -23 -28 -30 -31 -114 -4 -88 -3 -90 26 -123 l30 -34
271 -3 271 -3 0 -49 0 -50 -300 0 -300 0 0 -50 0 -50 309 0 c173 0 321 4 335
10 45 17 61 55 61 147 0 77 -2 85 -28 110 l-27 28 -273 5 -272 5 0 45 0 45
279 5 279 5 0 45 0 45 -301 3 -301 2 -28 -24z"/>
<path d="M810 1039 l0 -250 48 3 47 3 3 98 3 97 260 0 c336 0 339 1 339 161 0
76 -2 82 -29 110 l-29 29 -321 0 -321 0 0 -251z m598 104 l-3 -48 -247 -3
-248 -2 0 50 0 50 251 0 250 0 -3 -47z"/>
<path d="M1652 1243 l3 -48 280 -5 280 -5 0 -45 0 -45 -265 -2 c-185 -2 -272
-7 -288 -15 -38 -20 -52 -59 -52 -144 0 -73 1 -77 34 -110 l34 -34 286 0 286
0 32 29 33 29 3 162 c4 190 0 224 -35 256 l-26 24 -304 0 -304 0 3 -47z m568
-290 c0 -21 -4 -44 -8 -51 -7 -9 -64 -12 -253 -10 l-244 3 -3 33 c-6 64 -17
62 258 62 l250 0 0 -37z"/>
<path d="M2449 1261 l-29 -29 0 -187 c0 -109 4 -194 10 -206 25 -46 50 -49
380 -49 l310 0 0 50 0 50 -297 2 -298 3 -3 148 -3 147 301 0 300 0 0 50 0 50
-321 0 -321 0 -29 -29z"/>
<path d="M3257 1266 c-35 -32 -39 -66 -35 -256 l3 -162 33 -29 32 -29 300 0
300 0 0 50 0 50 -279 0 c-308 0 -291 -4 -291 65 l0 34 275 3 275 3 27 28 c24
24 28 36 31 102 3 46 -1 87 -8 106 -25 59 -27 59 -346 59 l-291 0 -26 -24z
m568 -126 l0 -45 -250 0 -250 0 -3 33 c-6 65 -17 63 255 60 l248 -3 0 -45z"/>
<path d="M6172 1243 l3 -48 147 -3 148 -3 2 -197 3 -197 48 -3 47 -3 0 200 0
200 153 3 152 3 3 48 3 47 -356 0 -356 0 3 -47z"/>
<path d="M7009 1261 l-29 -29 0 -189 c0 -206 3 -220 58 -242 20 -8 110 -11
311 -9 l283 3 24 28 c24 28 24 32 24 218 l0 191 -29 29 -29 29 -292 0 -292 0
-29 -29z m569 -218 l-3 -148 -245 0 -245 0 -3 148 -3 147 251 0 251 0 -3 -147z"/>
<path d="M8390 1040 l0 -251 326 3 326 3 24 28 c24 28 24 32 24 218 l0 191
-29 29 -29 29 -321 0 -321 0 0 -250z m598 3 l-3 -148 -247 -3 -248 -2 0 150 0
150 250 0 251 0 -3 -147z"/>
<path d="M9227 1266 c-35 -32 -39 -66 -35 -256 l3 -162 33 -29 32 -29 286 0
286 0 34 34 34 34 0 176 c0 187 -7 223 -49 246 -12 6 -130 10 -309 10 l-289 0
-26 -24z m568 -226 l0 -145 -244 -3 c-189 -2 -246 1 -253 10 -9 16 -11 272 -1
282 4 3 117 5 252 4 l246 -3 0 -145z"/>
<path d="M7782 1043 l3 -48 250 0 250 0 3 48 3 47 -256 0 -256 0 3 -47z"/>
<path d="M4450 1014 c0 -46 30 -147 67 -221 60 -122 193 -250 318 -303 121
-52 298 -67 420 -35 93 24 257 107 242 122 -3 2 -71 27 -152 54 -260 88 -646
264 -833 379 -27 16 -52 30 -56 30 -3 0 -6 -12 -6 -26z"/>
</g>
</svg>
