<?xml version="1.0" standalone="no"?>
<!DOCTYPE svg PUBLIC "-//W3C//DTD SVG 20010904//EN"
 "http://www.w3.org/TR/2001/REC-SVG-20010904/DTD/svg10.dtd">
<svg version="1.0" xmlns="http://www.w3.org/2000/svg"
 width="932.000000pt" height="216.000000pt" viewBox="0 0 932.000000 216.000000"
 preserveAspectRatio="xMidYMid meet">

<g transform="translate(0.000000,216.000000) scale(0.100000,-0.100000)"
fill="#ffffff" stroke="none">
<path d="M5033 1729 c-219 -20 -417 -159 -522 -366 l-21 -42 93 -57 c124 -78
423 -230 577 -294 120 -50 441 -161 506 -174 30 -7 32 -5 48 35 67 166 60 362
-19 527 -122 257 -371 397 -662 371z"/>
<path d="M4155 1598 c-56 -8 -105 -51 -105 -91 0 -40 57 -122 135 -195 383
-358 1428 -792 1824 -759 224 19 190 150 -85 338 l-102 69 -12 -52 c-12 -50
-12 -52 11 -70 82 -64 169 -141 169 -149 0 -13 -52 -11 -160 6 -482 79 -1253
431 -1543 706 l-72 68 40 0 c40 1 158 -14 200 -25 17 -4 27 3 49 36 15 23 24
46 19 50 -13 12 -160 51 -243 64 -43 7 -96 9 -125 4z"/>
<path d="M33 1256 c-26 -23 -28 -30 -31 -114 -4 -88 -3 -90 26 -123 l30 -34
271 -3 271 -3 0 -49 0 -50 -300 0 -300 0 0 -50 0 -50 309 0 c173 0 321 4 335
10 45 17 61 55 61 147 0 77 -2 85 -28 110 l-27 28 -273 5 -272 5 0 45 0 45
279 5 279 5 0 45 0 45 -301 3 -301 2 -28 -24z"/>
<path d="M810 1029 l0 -250 48 3 47 3 3 98 3 97 260 0 c336 0 339 1 339 161 0
76 -2 82 -29 110 l-29 29 -321 0 -321 0 0 -251z m598 104 l-3 -48 -247 -3
-248 -2 0 50 0 50 251 0 250 0 -3 -47z"/>
<path d="M1652 1233 l3 -48 280 -5 280 -5 3 -47 3 -48 -266 0 c-300 0 -314 -3
-335 -66 -7 -20 -10 -67 -8 -106 3 -64 7 -73 36 -99 l32 -29 285 0 285 0 32
29 33 29 3 163 c4 189 0 222 -33 255 l-24 24 -306 0 -306 0 3 -47z m566 -300
l-3 -48 -250 0 -250 0 -3 33 c-6 65 -17 62 258 62 l251 0 -3 -47z"/>
<path d="M2449 1251 l-29 -29 0 -187 c0 -109 4 -194 10 -206 25 -46 50 -49
380 -49 l310 0 0 50 0 50 -297 2 -298 3 -3 148 -3 147 301 0 300 0 0 50 0 50
-321 0 -321 0 -29 -29z"/>
<path d="M3257 1256 c-35 -32 -39 -66 -35 -256 l3 -162 33 -29 32 -29 300 0
300 0 0 50 0 50 -279 0 c-308 0 -291 -4 -291 65 l0 34 275 3 275 3 27 28 c24
24 28 36 31 102 3 46 -1 87 -8 106 -25 59 -27 59 -346 59 l-291 0 -26 -24z
m568 -126 l0 -45 -250 0 -250 0 -3 33 c-6 65 -17 63 255 60 l248 -3 0 -45z"/>
<path d="M6172 1233 l3 -48 147 -3 148 -3 2 -197 3 -197 50 0 50 0 3 197 2
197 148 3 147 3 3 48 3 47 -356 0 -356 0 3 -47z"/>
<path d="M7009 1251 l-29 -29 0 -189 c0 -206 3 -220 58 -242 20 -8 110 -11
311 -9 l283 3 24 28 c24 28 24 32 24 218 l0 191 -29 29 -29 29 -292 0 -292 0
-29 -29z m569 -218 l-3 -148 -245 0 -245 0 -3 148 -3 147 251 0 251 0 -3 -147z"/>
<path d="M7782 1033 l3 -248 318 -3 319 -2 34 34 34 34 0 176 c0 187 -7 223
-49 246 -12 6 -140 10 -341 10 l-320 0 2 -247z m603 -3 l0 -145 -250 0 -250 0
-3 148 -3 147 253 -2 253 -3 0 -145z"/>
<path d="M8623 1256 l-28 -24 -3 -182 c-2 -127 0 -192 9 -212 22 -55 42 -58
338 -58 148 0 281 4 295 10 50 19 61 52 65 198 4 178 -3 234 -36 266 l-26 26
-293 0 -293 0 -28 -24z m567 -226 l0 -150 -247 2 -248 3 -3 134 c-1 74 0 141
2 148 4 10 59 13 251 13 l245 0 0 -150z"/>
<path d="M4450 1008 c0 -48 32 -156 68 -228 55 -112 179 -235 292 -289 221
-106 447 -93 657 38 24 14 43 29 43 32 0 4 -21 12 -47 18 -199 51 -689 264
-928 405 -42 26 -79 46 -81 46 -2 0 -4 -10 -4 -22z"/>
</g>
</svg>
