<?xml version="1.0" standalone="no"?>
<!DOCTYPE svg PUBLIC "-//W3C//DTD SVG 20010904//EN"
 "http://www.w3.org/TR/2001/REC-SVG-20010904/DTD/svg10.dtd">
<svg version="1.0" xmlns="http://www.w3.org/2000/svg"
 width="512.000000pt" height="512.000000pt" viewBox="0 0 512.000000 512.000000"
 preserveAspectRatio="xMidYMid meet">

<g transform="translate(0.000000,512.000000) scale(0.100000,-0.100000)"
fill="#ffffff" stroke="none">
<path d="M688 5104 c-179 -43 -335 -190 -391 -369 l-22 -70 0 -1775 0 -1775
22 -70 c28 -90 84 -176 155 -240 64 -58 1229 -735 1331 -773 267 -101 586 53
685 331 23 65 26 90 30 264 l4 192 467 3 466 3 74 27 c173 63 296 195 349 373
19 66 30 728 13 793 -32 118 -161 165 -255 91 -51 -40 -51 -41 -56 -429 l-5
-366 -26 -49 c-28 -56 -86 -102 -145 -115 -21 -5 -229 -10 -461 -10 l-423 0 0
1273 c0 1398 2 1348 -61 1476 -46 94 -131 174 -274 257 -66 39 -346 200 -623
360 l-502 289 1161 3 c785 1 1174 -1 1200 -8 49 -13 103 -61 132 -114 21 -40
22 -53 27 -456 6 -464 3 -445 79 -488 74 -42 162 -21 209 51 l27 41 0 420 c0
407 -1 423 -22 491 -57 181 -213 327 -395 370 -91 21 -2682 21 -2770 -1z m653
-852 c398 -230 737 -426 752 -436 15 -11 40 -40 55 -65 l27 -46 3 -1590 c3
-1792 8 -1662 -73 -1733 -77 -68 -173 -78 -260 -29 -660 379 -1165 674 -1183
691 -13 11 -34 39 -45 61 l-22 40 0 1735 c0 1518 3 1790 19 1790 2 0 329 -188
727 -418z"/>
<path d="M4088 3630 c-20 -11 -45 -35 -57 -53 -25 -41 -28 -115 -7 -155 8 -15
71 -83 140 -152 69 -69 126 -128 126 -132 0 -5 -339 -8 -754 -8 l-753 0 -33
-22 c-57 -39 -75 -72 -75 -138 0 -71 21 -105 85 -137 l44 -23 745 0 746 0
-126 -127 c-70 -71 -134 -139 -143 -153 -20 -31 -21 -111 -1 -149 21 -41 70
-79 111 -87 81 -15 100 -1 386 284 148 146 279 282 293 303 31 43 36 119 12
165 -23 43 -567 581 -600 593 -42 16 -98 12 -139 -9z"/>
</g>
</svg>
