<?xml version="1.0" standalone="no"?>
<!DOCTYPE svg PUBLIC "-//W3C//DTD SVG 20010904//EN"
 "http://www.w3.org/TR/2001/REC-SVG-20010904/DTD/svg10.dtd">
<svg version="1.0" xmlns="http://www.w3.org/2000/svg"
 width="600.000000pt" height="600.000000pt" viewBox="0 0 600.000000 600.000000"
 preserveAspectRatio="xMidYMid meet">

<g transform="translate(0.000000,600.000000) scale(0.100000,-0.100000)"
fill="#ffffff" stroke="none">
<path d="M2849 4355 c-92 -18 -205 -68 -287 -125 -395 -277 -431 -853 -74
-1181 249 -229 611 -263 910 -88 73 44 207 178 251 251 127 216 145 465 51
691 -138 332 -497 522 -851 452z"/>
<path d="M2306 2884 c-356 -214 -616 -583 -671 -951 -17 -111 -19 -251 -5
-273 8 -13 66 -16 377 -21 779 -14 2341 -5 2359 14 15 14 17 146 4 245 -24
195 -107 402 -228 571 -73 102 -210 242 -312 320 -76 58 -189 131 -203 131 -4
0 -38 -23 -75 -52 -149 -114 -345 -178 -547 -179 -219 0 -398 58 -558 181 -37
27 -70 50 -74 50 -4 0 -35 -16 -67 -36z"/>
</g>
</svg>
